<svg xmlns="http://www.w3.org/2000/svg" width="24" height="24" viewBox="0 0 24 24" fill="none">
  <path d="M9.5 3a4.5 4.5 0 0 0-4.5 4.5c0 1 .3 2 .8 2.8-.5.8-.8 1.8-.8 2.7 0 2.5 1.8 4.6 4.2 5V21h5.6v-3h.4c2.5 0 4.5-2 4.5-4.5 0-.8-.3-1.6-.7-2.3.4-.8.7-1.6.7-2.5a4.5 4.5 0 0 0-4.5-4.5h-.2C13.5 3 11.5 3 9.5 3z" fill="currentColor" opacity="0.6"/>
  <circle cx="10" cy="8" r="1.3" fill="currentColor"/>
  <circle cx="15" cy="9" r="1.3" fill="currentColor"/>
  <circle cx="12" cy="14" r="1.3" fill="currentColor"/>
  <line x1="10" y1="8" x2="15" y2="9" stroke="currentColor" stroke-width="0.8"/>
  <line x1="15" y1="9" x2="12" y2="14" stroke="currentColor" stroke-width="0.8"/>
  <line x1="12" y1="14" x2="10" y2="8" stroke="currentColor" stroke-width="0.8"/>
</svg>
